<?xml version="1.0" standalone="no"?>
<!DOCTYPE svg PUBLIC "-//W3C//DTD SVG 20010904//EN"
 "http://www.w3.org/TR/2001/REC-SVG-20010904/DTD/svg10.dtd">
<svg version="1.0" xmlns="http://www.w3.org/2000/svg"
 width="3500.000000pt" height="3500.000000pt" viewBox="0 0 3500.000000 3500.000000"
 preserveAspectRatio="xMidYMid meet">
<metadata>
Created by potrace 1.11, written by Peter Selinger 2001-2013
</metadata>
<g transform="translate(0.000000,3500.000000) scale(0.100000,-0.100000)"
fill="#000000" stroke="none">
<path d="M12995 29100 c-1006 -70 -1920 -138 -2030 -149 -386 -41 -686 -127
-1020 -291 -399 -196 -737 -475 -1011 -835 -102 -134 -181 -266 -268 -446 -69
-142 -166 -400 -166 -438 0 -10 43 -37 123 -78 l122 -61 39 80 c270 559 769
997 1358 1193 268 89 486 120 791 112 106 -2 1033 -64 2060 -136 l1868 -131
4707 0 4708 0 1509 105 c831 58 1704 119 1940 136 606 44 818 37 1107 -37 598
-151 1120 -547 1437 -1088 181 -309 234 -474 305 -951 208 -1407 333 -4957
312 -8920 -23 -4474 -181 -7827 -412 -8748 -32 -126 -42 -152 -135 -329 -311
-590 -780 -989 -1388 -1182 -319 -101 -580 -119 -1136 -77 -154 11 -1025 73
-1936 136 l-1656 115 -4655 0 -4656 0 -1869 -130 c-1027 -72 -1947 -135 -2043
-141 -645 -36 -1246 183 -1723 631 -165 155 -356 411 -473 635 -31 61 -59 112
-60 114 -3 4 -224 -107 -238 -120 -22 -20 97 -340 196 -529 69 -133 197 -328
294 -450 94 -118 299 -321 423 -419 367 -291 746 -471 1211 -575 228 -51 159
-45 2406 -201 l1802 -125 4730 0 4730 0 1584 110 c870 61 1714 119 1873 130
385 27 610 54 773 91 1087 249 1907 1049 2151 2099 91 395 228 1642 331 3015
112 1500 183 2953 231 4725 27 1009 22 3053 -11 4200 -76 2633 -254 5079 -456
6260 -46 271 -70 366 -155 610 -121 350 -234 571 -420 820 -109 147 -348 391
-494 506 -421 332 -909 537 -1440 605 -82 11 -1020 80 -2083 154 l-1934 135
-4711 -1 -4712 -1 -1830 -128z"/>
<path d="M9230 24633 c-1426 -44 -2652 -329 -3720 -862 -567 -283 -1048 -606
-1532 -1028 -176 -152 -533 -512 -683 -688 -935 -1097 -1431 -2372 -1536
-3950 -24 -369 -12 -984 27 -1385 190 -1945 1044 -3524 2554 -4723 1123 -892
2519 -1429 4120 -1586 400 -39 554 -46 1090 -46 886 0 1549 62 2312 216 1293
260 2520 789 3620 1560 l126 89 -10 32 c-5 18 -188 616 -407 1328 -354 1154
-399 1295 -417 1293 -10 0 -58 -6 -105 -13 l-87 -12 -17 -86 c-64 -328 -214
-819 -341 -1117 -447 -1055 -1219 -1884 -2208 -2371 -496 -245 -998 -384
-1631 -455 -156 -17 -747 -23 -941 -10 -1064 74 -1964 427 -2735 1072 -602
504 -1138 1226 -1489 2002 -386 855 -593 1737 -681 2902 -17 226 -23 1039 -10
1305 84 1706 511 3047 1306 4105 776 1032 1771 1652 3007 1874 564 102 1224
118 1808 45 780 -98 1470 -377 2025 -821 134 -107 375 -340 498 -483 378 -436
701 -1013 945 -1685 38 -104 91 -260 116 -345 26 -85 49 -160 51 -166 3 -12
202 -51 212 -41 6 6 713 2494 713 2507 -1 7 -167 109 -375 228 -1263 724
-2778 1171 -4370 1287 -398 29 -870 40 -1235 28z"/>
</g>
</svg>
